<svg width="18" height="19" viewBox="0 0 18 19" fill="none" xmlns="http://www.w3.org/2000/svg">
<g clip-path="url(#clip0_0_288)">
<path d="M5.625 4.82947H4.5V7.07947H5.625V4.82947Z" fill="#BC047A"/>
<path d="M5.625 8.20447H4.5V10.4545H5.625V8.20447Z" fill="#BC047A"/>
<path d="M9 4.82947H7.875V7.07947H9V4.82947Z" fill="#BC047A"/>
<path d="M9 8.20447H7.875V10.4545H9V8.20447Z" fill="#BC047A"/>
<path d="M5.625 11.5795H4.5V13.8295H5.625V11.5795Z" fill="#BC047A"/>
<path d="M9 11.5795H7.875V13.8295H9V11.5795Z" fill="#BC047A"/>
<path d="M16.875 8.20447C16.875 7.9061 16.7565 7.61995 16.5455 7.40897C16.3345 7.19799 16.0484 7.07947 15.75 7.07947H12.375V2.57947C12.375 2.2811 12.2565 1.99495 12.0455 1.78397C11.8345 1.57299 11.5484 1.45447 11.25 1.45447H2.25C1.95163 1.45447 1.66548 1.57299 1.4545 1.78397C1.24353 1.99495 1.125 2.2811 1.125 2.57947V17.2045H16.875V8.20447ZM2.25 2.57947H11.25V16.0795H2.25V2.57947ZM12.375 16.0795V8.20447H15.75V16.0795H12.375Z" fill="#BC047A"/>
</g>
<defs>
<clipPath id="clip0_0_288">
<rect width="18" height="18" fill="white" transform="translate(0 0.329468)"/>
</clipPath>
</defs>
</svg>
