<svg width="20" height="20" viewBox="0 0 20 20" fill="none" xmlns="http://www.w3.org/2000/svg">
<g id="9024567_fingerprint_simple_light_icon 1">
<g id="Group 511">
<path id="Vector" d="M14.1514 10.1667C14.1533 12.6101 13.6783 15.0303 12.7529 17.2917" stroke="black" stroke-linecap="round" stroke-linejoin="round"/>
<path id="Vector_2" d="M13.1982 7.6667C12.6921 7.09996 12.0257 6.70037 11.2873 6.52085C10.549 6.34133 9.77348 6.39035 9.0636 6.66142C8.35373 6.9325 7.74296 7.41283 7.31218 8.0388C6.88141 8.66476 6.65096 9.40683 6.65137 10.1667C6.65602 12.0722 6.17184 13.947 5.24512 15.612" stroke="black" stroke-linecap="round" stroke-linejoin="round"/>
<path id="Vector_3" d="M7.90137 3.09638C8.70363 2.80984 9.54947 2.66446 10.4014 2.6667C12.3905 2.6667 14.2981 3.45687 15.7047 4.8634C17.1112 6.26992 17.9014 8.17757 17.9014 10.1667C17.9005 11.8487 17.7145 13.5254 17.3467 15.1667" stroke="black" stroke-linecap="round" stroke-linejoin="round"/>
<path id="Vector_4" d="M2.22168 13.2917C2.67145 12.3114 2.90334 11.2452 2.90137 10.1667C2.90048 9.11195 3.12278 8.06895 3.55365 7.10622C3.98452 6.14349 4.61422 5.28282 5.40137 4.58076" stroke="black" stroke-linecap="round" stroke-linejoin="round"/>
<path id="Vector_5" d="M9.04199 16.4167C8.87793 16.7604 8.71387 17.1042 8.52637 17.4323" stroke="black" stroke-linecap="round" stroke-linejoin="round"/>
<path id="Vector_6" d="M10.4014 10.1667C10.4033 11.4319 10.2432 12.6922 9.9248 13.9167" stroke="black" stroke-linecap="round" stroke-linejoin="round"/>
</g>
</g>
</svg>
