<svg width="50" height="51" viewBox="0 0 50 51" fill="none" xmlns="http://www.w3.org/2000/svg">
<g id="Frame 405">
<g id="_icons">
<path id="Vector" d="M27.7209 17.563C26.5462 17.563 25.5393 17.9825 24.7002 18.8216L22.8543 20.6676C22.5186 21.0032 22.5186 21.5067 22.8543 21.8423C23.1899 22.1779 23.6933 22.1779 24.029 21.8423L25.875 19.9963C26.8818 18.9894 28.56 18.9894 29.5669 19.9963C30.0704 20.4998 30.3221 21.171 30.3221 21.8423C30.3221 22.5136 30.0704 23.1848 29.5669 23.6883L27.7209 25.5343C27.3853 25.8699 27.3853 26.3733 27.7209 26.709C27.8887 26.8768 28.1405 26.9607 28.3083 26.9607C28.4761 26.9607 28.7278 26.8768 28.8956 26.709L30.7416 24.863C31.5807 24.0239 32.0002 23.017 32.0002 21.8423C32.0002 20.6676 31.5807 19.6607 30.7416 18.8216C29.9025 17.9825 28.8956 17.563 27.7209 17.563Z" fill="#BC047A"/>
<path id="Vector_2" d="M21.6793 24.2756C22.015 23.9399 22.015 23.4365 21.6793 23.1008C21.3437 22.7652 20.8403 22.7652 20.5046 23.1008L18.6586 24.8629C17.8196 25.702 17.4 26.7089 17.4 27.8836C17.4 29.0583 17.8196 30.0652 18.6586 30.9043C19.4977 31.7434 20.5046 32.1629 21.6793 32.1629C22.854 32.1629 23.8609 31.7434 24.7 30.9043L26.546 29.0583C26.8816 28.7227 26.8816 28.2192 26.546 27.8836C26.2104 27.548 25.7069 27.548 25.3713 27.8836L23.5253 29.7296C22.5184 30.7365 20.8403 30.7365 19.8334 29.7296C19.3299 29.2261 19.0782 28.5549 19.0782 27.8836C19.0782 27.2123 19.3299 26.5411 19.8334 26.0376L21.6793 24.2756Z" fill="#BC047A"/>
<path id="Vector_3" d="M22.2667 27.2964C22.4346 27.4643 22.6863 27.5482 22.8541 27.5482C23.0219 27.5482 23.2736 27.4643 23.4415 27.2964L27.0495 23.6884C27.3851 23.3528 27.3851 22.8493 27.0495 22.5137C26.7139 22.1781 26.2104 22.1781 25.8748 22.5137L22.2667 26.1217C21.9311 26.3735 21.9311 26.9608 22.2667 27.2964Z" fill="#BC047A"/>
</g>
</g>
</svg>
