<svg width="50" height="51" viewBox="0 0 50 51" fill="none" xmlns="http://www.w3.org/2000/svg">
<g id="Frame 405">
<g id="mail email e-mail letter">
<path id="Vector" d="M32.3846 23.4141C32.2214 23.4141 32.0649 23.4789 31.9495 23.5943C31.8341 23.7097 31.7692 23.8662 31.7692 24.0294V28.9525C31.7692 29.1157 31.7044 29.2723 31.589 29.3877C31.4736 29.5031 31.3171 29.5679 31.1538 29.5679H18.8462C18.6829 29.5679 18.5264 29.5031 18.411 29.3877C18.2956 29.2723 18.2308 29.1157 18.2308 28.9525V24.0294C18.2308 23.8662 18.1659 23.7097 18.0505 23.5943C17.9351 23.4789 17.7786 23.4141 17.6154 23.4141C17.4522 23.4141 17.2956 23.4789 17.1802 23.5943C17.0648 23.7097 17 23.8662 17 24.0294V28.9525C17.0004 29.442 17.1952 29.9113 17.5415 30.2571C17.8874 30.6035 18.3567 30.7982 18.8462 30.7987H31.1538C31.6433 30.7982 32.1126 30.6035 32.4585 30.2571C32.8048 29.9113 32.9996 29.442 33 28.9525V24.0294C33 23.8662 32.9352 23.7097 32.8198 23.5943C32.7044 23.4789 32.5478 23.4141 32.3846 23.4141Z" fill="#BC047A"/>
<path id="Vector_2" d="M24.6306 26.9832C24.7371 27.0631 24.8667 27.1063 24.9998 27.1063C25.133 27.1063 25.2625 27.0631 25.3691 26.9832L32.6368 21.5309C32.7501 21.4454 32.8305 21.3233 32.8641 21.1854C32.8978 21.0474 32.8827 20.9021 32.8214 20.774C32.7297 20.5846 32.607 20.412 32.4583 20.2632C32.1124 19.9169 31.6431 19.7221 31.1537 19.7217H18.846C18.3565 19.7221 17.8873 19.9169 17.5414 20.2632C17.3927 20.412 17.2699 20.5846 17.1783 20.774C17.117 20.9021 17.1019 21.0474 17.1356 21.1854C17.1692 21.3233 17.2495 21.4454 17.3629 21.5309L24.6306 26.9832ZM18.846 20.9524H31.1537C31.2108 20.9435 31.2689 20.9435 31.326 20.9524L24.9998 25.7217L18.6737 20.9524C18.7308 20.9435 18.7889 20.9435 18.846 20.9524Z" fill="#BC047A"/>
</g>
</g>
</svg>
