<svg width="50" height="51" viewBox="0 0 50 51" fill="none" xmlns="http://www.w3.org/2000/svg">
<path d="M33.9334 23.57C33.7775 23.1318 33.3776 22.811 32.8961 22.7414L28.2126 22.0625L26.1768 17.9419C25.9625 17.5092 25.504 17.2323 25 17.2323C24.496 17.2323 24.0375 17.5092 23.8232 17.9419L21.7875 22.0625L17.1034 22.7414C16.6224 22.811 16.2225 23.1318 16.0672 23.57C15.9125 24.0093 16.0295 24.4929 16.3693 24.8231L19.8018 28.1638L19.0058 32.7983C18.9248 33.2649 19.1324 33.7333 19.5391 34.0064C19.7624 34.1561 20.0251 34.2323 20.2878 34.2323C20.5038 34.2323 20.7204 34.1808 20.9167 34.0782L25 31.9351L29.0839 34.0782C29.2802 34.1808 29.4968 34.2323 29.7122 34.2323C29.9749 34.2323 30.2376 34.1561 30.4615 34.0064C30.8682 33.7333 31.0746 33.2649 30.9942 32.7983L30.1977 28.1638L33.6313 24.8231C33.9705 24.4924 34.0869 24.0087 33.9334 23.57ZM29.2684 27.3023C28.9804 27.582 28.8499 27.9763 28.9157 28.3629L29.7122 32.9973L25.6284 30.8553C25.4326 30.7522 25.2166 30.7012 24.9995 30.7012C24.7834 30.7012 24.5669 30.7528 24.3711 30.8553L20.2872 32.9973L21.0838 28.3629C21.1501 27.9763 21.0196 27.582 20.7316 27.3023L17.2991 23.9616L21.9827 23.2816C22.4107 23.2196 22.7792 22.9586 22.9631 22.5862L25 18.4667L27.0363 22.5868C27.2208 22.9591 27.5887 23.2196 28.0162 23.2821L32.7009 23.9621L29.2684 27.3023Z" fill="#BC047A"/>
</svg>
