<svg width="50" height="51" viewBox="0 0 50 51" fill="none" xmlns="http://www.w3.org/2000/svg">
<g id="Frame 405">
<g id="Group 516">
<g id="Group 517">
<path id="Vector" d="M23.1705 26.8089L29.4469 32.0778C29.5195 32.139 29.6075 32.1813 29.7023 32.2003C29.7971 32.2193 29.8954 32.2144 29.9877 32.1862C30.0799 32.158 30.1629 32.1074 30.2285 32.0393C30.294 31.9713 30.3399 31.8881 30.3615 31.798L32.9866 20.8605C33.0086 20.7663 33.0034 20.6682 32.9715 20.5766C32.9397 20.485 32.8823 20.4034 32.8056 20.3405C32.7289 20.2776 32.6357 20.2357 32.5361 20.2194C32.4364 20.203 32.3339 20.2128 32.2396 20.2477L19.3516 25.077C18.8349 25.2702 18.9047 25.9896 19.4493 26.0961L23.1705 26.8089Z" stroke="#BC047A" stroke-width="1.2" stroke-linecap="round" stroke-linejoin="round"/>
<path id="Vector_2" d="M23 27.2117L32.5 20.7117" stroke="#BC047A" stroke-width="1.2" stroke-linecap="round" stroke-linejoin="round"/>
<path id="Vector_3" d="M26.5 30.2117L24.2205 32.0484C24.1213 32.1257 23.9945 32.1787 23.856 32.2005C23.7176 32.2223 23.5738 32.212 23.443 32.171C23.3122 32.1299 23.2003 32.0599 23.1214 31.9699C23.0425 31.8798 23.0002 31.7738 23 31.6653V27.2117" stroke="#BC047A" stroke-width="1.2" stroke-linecap="round" stroke-linejoin="round"/>
</g>
</g>
</g>
</svg>
