<svg width="50" height="51" viewBox="0 0 50 51" fill="none" xmlns="http://www.w3.org/2000/svg">
<path d="M29.9254 25.3955C29.8661 25.3366 29.7957 25.2899 29.7184 25.2582C29.641 25.2265 29.5582 25.2103 29.4746 25.2106C29.3909 25.2109 29.3082 25.2276 29.2311 25.2599C29.1539 25.2922 29.0839 25.3393 29.025 25.3987C28.9661 25.458 28.9194 25.5283 28.8877 25.6057C28.856 25.6831 28.8398 25.7659 28.8401 25.8495C28.8404 25.9331 28.8572 26.0159 28.8894 26.093C28.9217 26.1701 28.9688 26.2402 29.0282 26.2991C29.5666 26.8318 29.9941 27.4661 30.2857 28.1652C30.5773 28.8643 30.7274 29.6142 30.7272 30.3717C30.7272 31.148 28.4936 32.2807 25.0001 32.2807C21.5066 32.2807 19.273 31.148 19.273 30.3717C19.272 29.6192 19.4193 28.8739 19.7064 28.1784C19.9936 27.4829 20.415 26.8508 20.9466 26.3182C21.0651 26.1989 21.1316 26.0377 21.1316 25.8695C21.1316 25.7014 21.0651 25.5402 20.9466 25.4209C20.8273 25.3024 20.6661 25.2359 20.4979 25.2359C20.3298 25.2359 20.1685 25.3024 20.0493 25.4209C19.3971 26.0695 18.8802 26.841 18.5284 27.6909C18.1767 28.5407 17.9972 29.4519 18.0003 30.3717C18.0003 32.4398 21.6084 33.5534 25.0001 33.5534C28.3918 33.5534 31.9999 32.4398 31.9999 30.3717C32.0024 29.446 31.8201 28.5291 31.4639 27.6746C31.1077 26.8202 30.5847 26.0453 29.9254 25.3955Z" fill="#BC047A"/>
<path d="M25.0002 25.9172C25.8812 25.9172 26.7424 25.656 27.475 25.1665C28.2075 24.6771 28.7784 23.9814 29.1156 23.1674C29.4527 22.3535 29.5409 21.4579 29.369 20.5938C29.1972 19.7297 28.7729 18.936 28.15 18.313C27.527 17.6901 26.7333 17.2658 25.8692 17.094C25.0051 16.9221 24.1095 17.0103 23.2956 17.3474C22.4816 17.6846 21.7859 18.2555 21.2965 18.988C20.807 19.7206 20.5458 20.5818 20.5458 21.4628C20.5458 22.6442 21.0151 23.7772 21.8504 24.6125C22.6858 25.4479 23.8188 25.9172 25.0002 25.9172ZM25.0002 18.2811C25.6295 18.2811 26.2446 18.4677 26.7679 18.8173C27.2911 19.1669 27.6989 19.6638 27.9397 20.2452C28.1806 20.8266 28.2436 21.4663 28.1208 22.0835C27.998 22.7007 27.695 23.2676 27.25 23.7126C26.8051 24.1576 26.2381 24.4606 25.6209 24.5834C25.0037 24.7062 24.364 24.6432 23.7826 24.4023C23.2012 24.1615 22.7043 23.7537 22.3547 23.2305C22.0051 22.7072 21.8185 22.0921 21.8185 21.4628C21.8185 20.6189 22.1537 19.8097 22.7504 19.213C23.3471 18.6163 24.1564 18.2811 25.0002 18.2811Z" fill="#BC047A"/>
</svg>
