<svg width="21" height="22" viewBox="0 0 21 22" fill="none" xmlns="http://www.w3.org/2000/svg">
<rect y="0.485352" width="21" height="21" rx="2" fill="#FFA300"/>
<path d="M11.8778 6.30353L11.6193 13.3035H9.35227L9.09375 6.30353H11.8778ZM10.4858 16.6444C10.1013 16.6444 9.77154 16.5102 9.49645 16.2417C9.22467 15.97 9.09044 15.6402 9.09375 15.2524C9.09044 14.8746 9.22467 14.5514 9.49645 14.2829C9.77154 14.0145 10.1013 13.8802 10.4858 13.8802C10.8504 13.8802 11.1719 14.0145 11.4503 14.2829C11.732 14.5514 11.8745 14.8746 11.8778 15.2524C11.8745 15.5109 11.8066 15.7462 11.674 15.9584C11.5447 16.1672 11.3757 16.3345 11.1669 16.4605C10.9581 16.5831 10.7311 16.6444 10.4858 16.6444Z" fill="white"/>
</svg>
